Coordinates
version=1
nRows=9
nColumns=42
inDegrees=yes

Units are S.I. units (second, meters, Newtons, ...)
If the header above contains a line with 'inDegrees', this indicates whether rotational values are in degrees (yes) or radians (no).

endheader
time	pelvis_tilt	pelvis_list	pelvis_rotation	pelvis_tx	pelvis_ty	pelvis_tz	hip_flexion_r	hip_adduction_r	hip_rotation_r	knee_angle_r	knee_angle_r_beta	ankle_angle_r	subtalar_angle_r	mtp_angle_r	hip_flexion_l	hip_adduction_l	hip_rotation_l	knee_angle_l	knee_angle_l_beta	ankle_angle_l	subtalar_angle_l	mtp_angle_l	lumbar_extension	lumbar_bending	lumbar_rotation	sh_tx_r	sh_ty_r	sh_tz_r	sh_plane_elev_r	sh_elev_r	sh_axial_rot_r	elbow_flex_r	pro_sup_r	sh_tx_l	sh_ty_l	sh_tz_l	sh_plane_elev_l	sh_elev_l	sh_axial_rot_l	elbow_flex_l	pro_sup_l
      2.27118640	     -3.84741823	     -0.48010249	      0.82568911	      0.32790502	      0.93901759	      0.00665058	      0.32019350	     -5.05570183	     -2.19079262	      0.65451391	      0.01142342	      3.46753170	      0.23736186	     -7.49999987	      0.78247193	     -4.49331145	     -9.96267294	      0.95783009	      0.01671729	      7.43680308	     -1.67537126	     -7.49999987	      3.16108503	     -3.86437607	      2.14636144	     -0.00371924	     -0.01212860	     -0.00442272	     74.59271759	    122.42788325	     -0.44164361	      3.57020366	     29.25842204	     -0.00753121	     -0.01677978	     -0.00498842	     33.34562486	      9.43691510	     -2.29387516	     22.85622109	     46.41223016
      2.28813560	     -3.82856882	     -0.47186679	      0.78502742	      0.32789556	      0.93907053	      0.00661093	      0.30533415	     -5.07717631	     -2.10577130	      0.64776378	      0.01130561	      3.50164202	      0.18469685	     -7.49999987	      0.76087446	     -4.48190116	    -10.13677542	      0.97909719	      0.01708847	      7.46128314	     -1.51163218	     -7.49999987	      3.18459023	     -3.86317655	      2.12500783	     -0.00314392	     -0.01250244	     -0.00444249	     74.55604579	    123.08306127	     -0.07135727	      3.62060375	     29.35210279	     -0.00774749	     -0.01671043	     -0.00499526	     33.58782000	      9.46935116	     -2.02003531	     22.54244789	     46.60196026
      2.30508470	     -3.82883276	     -0.49147454	      0.77637510	      0.32785355	      0.93892677	      0.00655325	      0.30637226	     -5.06201705	     -2.20654263	      0.64989013	      0.01134272	      3.50770283	      0.32966825	     -7.49999987	      0.76037231	     -4.50053679	    -10.16428061	      0.97846871	      0.01707750	      7.34189851	     -1.62461772	     -7.49999987	      3.20238990	     -3.86535060	      2.33914770	     -0.00360477	     -0.01277934	     -0.00449258	     74.40620238	    123.69103044	     -0.07674764	      3.56363998	     29.47946223	     -0.00745766	     -0.01663809	     -0.00504691	     34.06396551	      9.53481065	     -1.78664801	     22.39136677	     46.57937067
      2.32203390	     -4.01063552	     -0.49766758	      0.73638989	      0.32735934	      0.93841654	      0.00663421	      0.78936840	     -5.07907556	     -2.34370192	      1.16729346	      0.02037311	      3.81445273	      0.49385123	     -7.49999987	      1.23519386	     -4.56382008	    -10.43995537	      1.53655478	      0.02681794	      7.68413745	     -1.39403793	     -7.49999987	      3.52381403	     -4.17451729	      3.52898171	     -0.00744453	     -0.00988765	     -0.00490474	     71.22673742	    124.09305571	     -4.33374556	      6.08262814	     32.57682854	     -0.00303991	     -0.01391554	     -0.00519520	     33.18046010	      9.44182985	     -0.32757542	     22.61691021	     48.45307582
      2.33898300	     -3.88705545	     -0.51150970	      0.72685509	      0.32792953	      0.93868274	      0.00650461	      0.37428333	     -5.05969565	     -2.30502343	      0.65635841	      0.01145562	      3.53059246	      0.56121285	     -7.49999987	      0.80314601	     -4.51431592	    -10.45167878	      0.97804262	      0.01707006	      7.41719409	     -1.36025245	     -7.49999987	      3.33256832	     -3.94092517	      2.52384720	     -0.00334638	     -0.01246664	     -0.00450383	     73.82794286	    125.12263691	      0.82460088	      3.37930910	     27.34198483	     -0.00731356	     -0.01666878	     -0.00507581	     34.75458651	      9.51524978	     -1.94103989	     21.99531736	     46.53700423
      2.35593220	     -3.92285266	     -0.51552792	      0.72767502	      0.32799422	      0.94152808	      0.00615784	      0.40683303	     -5.06252482	     -2.38726558	      0.64719203	      0.01129563	      3.51718332	      0.72599984	     -7.49999987	      0.83234423	     -4.51253299	    -10.50564782	      0.94594751	      0.01650990	      7.30545756	     -1.34225722	     -7.49999987	      3.43730673	     -4.05821227	      2.82790411	     -0.00345319	     -0.01266749	     -0.00452209	     72.92017441	    125.95343358	      1.18874501	      3.15692501	     26.86949635	     -0.00645086	     -0.01670161	     -0.00516624	     35.25990752	      9.52089157	     -1.80910313	     21.65661285	     46.71389910
      2.37288140	     -3.89942936	     -0.53026228	      0.69901013	      0.32796893	      0.94126367	      0.00618109	      0.38134137	     -5.05327620	     -2.40177008	      0.63172707	      0.01102572	      3.45517697	      0.76931598	     -7.49999987	      0.78517231	     -4.52002468	    -10.63700994	      0.91438958	      0.01595911	      7.26435252	     -1.21934135	     -7.49999987	      3.40759093	     -4.05890505	      2.81464546	     -0.00310591	     -0.01269783	     -0.00454111	     72.20327745	    127.07116742	      0.34353630	      3.22416871	     28.86548719	     -0.00634650	     -0.01676733	     -0.00518409	     35.14130419	      9.46535872	     -1.75788086	     21.53932330	     47.40047155
      2.38983050	     -3.90313977	     -0.54191314	      0.63053865	      0.32793080	      0.94102655	      0.00619451	      0.41438786	     -5.03883806	     -2.40894568	      0.62306885	      0.01087460	      3.52742236	      1.01305695	     -7.49999987	      0.77740853	     -4.51467358	    -10.78534004	      0.89176949	      0.01556431	      7.30063410	     -0.95840785	     -7.49999987	      3.44601474	     -4.05499675	      2.69454427	     -0.00281951	     -0.01309836	     -0.00454529	     72.02279346	    128.04419782	      0.10578177	      3.33500935	     28.83577058	     -0.00697218	     -0.01676967	     -0.00517157	     35.31362448	      9.44637631	     -1.78907154	     21.33078958	     47.43529784
      2.40677970	     -3.91321819	     -0.55264438	      0.54103243	      0.32780480	      0.94383948	      0.00634151	      0.44320307	     -5.02323992	     -2.34814691	      0.60734612	      0.01060019	      3.49647596	      1.12850626	     -7.49999987	      0.77248974	     -4.51497215	    -10.81487366	      0.84809517	      0.01480205	      7.12344791	     -1.04115961	     -7.49999987	      3.49741122	     -4.01485082	      2.68400292	     -0.00241512	     -0.01331295	     -0.00449531	     71.52214639	    129.14266035	     -0.94119974	      3.82561368	     29.95397702	     -0.00689390	     -0.01685911	     -0.00509176	     35.01048503	      9.38729101	     -1.77036510	     21.30122746	     48.07119779
